<svg xmlns="http://www.w3.org/2000/svg" width="1400" height="360" viewBox="0 0 1400 360" fill="none">
  <defs>
    <linearGradient id="tsmBg" x1="40" y1="24" x2="240" y2="252" gradientUnits="userSpaceOnUse">
      <stop offset="0%" stop-color="#0A84FF"/>
      <stop offset="100%" stop-color="#7B61FF"/>
    </linearGradient>
    <linearGradient id="tsmGlass" x1="58" y1="36" x2="216" y2="214" gradientUnits="userSpaceOnUse">
      <stop offset="0%" stop-color="rgba(255,255,255,0.34)"/>
      <stop offset="100%" stop-color="rgba(255,255,255,0.06)"/>
    </linearGradient>
    <filter id="shadow" x="0" y="18" width="320" height="320" filterUnits="userSpaceOnUse" color-interpolation-filters="sRGB">
      <feDropShadow dx="0" dy="18" stdDeviation="18" flood-color="#0F172A" flood-opacity="0.18"/>
    </filter>
    <filter id="softText" x="278" y="54" width="1090" height="234" filterUnits="userSpaceOnUse" color-interpolation-filters="sRGB">
      <feDropShadow dx="0" dy="6" stdDeviation="8" flood-color="#0F172A" flood-opacity="0.08"/>
    </filter>
  </defs>

  <g filter="url(#shadow)">
    <rect x="24" y="48" width="236" height="236" rx="64" fill="url(#tsmBg)"/>
    <rect x="38" y="62" width="208" height="208" rx="50" fill="url(#tsmGlass)" stroke="rgba(255,255,255,0.22)" stroke-width="2"/>
    <circle cx="86" cy="98" r="42" fill="rgba(255,255,255,0.18)"/>
    <circle cx="208" cy="228" r="34" fill="rgba(255,255,255,0.12)"/>

    <g fill="#FFFFFF">
      <rect x="88" y="102" width="110" height="22" rx="11"/>
      <rect x="132" y="102" width="22" height="86" rx="11"/>
      <path d="M103 170C103 154.536 115.536 142 131 142H167C182.464 142 195 154.536 195 170V173C195 178.523 190.523 183 185 183H113C107.477 183 103 178.523 103 173V170Z" opacity="0.94"/>
      <path d="M164.551 161.229L188.031 136.963C191.487 133.39 197.197 133.296 200.769 136.752C204.342 140.208 204.436 145.918 200.98 149.49L177.5 173.757L164.551 161.229Z" opacity="0.92"/>
      <rect x="168" y="162" width="42" height="18" rx="9" transform="rotate(-45 168 162)" opacity="0.88"/>
    </g>
  </g>

  <g filter="url(#softText)">
    <text x="320" y="156" fill="#0F172A" font-size="82" font-family="Inter, Arial, sans-serif" font-weight="800" letter-spacing="-2">
      Tôi Share
    </text>
    <rect x="322" y="182" width="172" height="58" rx="29" fill="#0A84FF"/>
    <text x="371" y="220" fill="#FFFFFF" font-size="34" font-family="Inter, Arial, sans-serif" font-weight="800" letter-spacing="1">
      MOD
    </text>
    <text x="522" y="222" fill="#64748B" font-size="34" font-family="Inter, Arial, sans-serif" font-weight="600" letter-spacing="-0.4">
      Kho ứng dụng và bài viết cho iPhone, iPad
    </text>
  </g>
</svg>
