<svg xmlns="http://www.w3.org/2000/svg" width="512" height="512" viewBox="0 0 512 512" fill="none">
  <defs>
    <linearGradient id="markBg" x1="74" y1="48" x2="432" y2="454" gradientUnits="userSpaceOnUse">
      <stop offset="0%" stop-color="#0A84FF"/>
      <stop offset="100%" stop-color="#7B61FF"/>
    </linearGradient>
    <filter id="markShadow" x="16" y="24" width="480" height="480" filterUnits="userSpaceOnUse" color-interpolation-filters="sRGB">
      <feDropShadow dx="0" dy="24" stdDeviation="24" flood-color="#0F172A" flood-opacity="0.2"/>
    </filter>
  </defs>

  <g filter="url(#markShadow)">
    <rect x="40" y="40" width="432" height="432" rx="118" fill="url(#markBg)"/>
    <rect x="64" y="64" width="384" height="384" rx="94" fill="rgba(255,255,255,0.12)" stroke="rgba(255,255,255,0.2)" stroke-width="2"/>
    <circle cx="138" cy="132" r="74" fill="rgba(255,255,255,0.14)"/>
    <circle cx="378" cy="374" r="54" fill="rgba(255,255,255,0.1)"/>

    <g fill="#FFFFFF">
      <rect x="156" y="158" width="196" height="34" rx="17"/>
      <rect x="237" y="158" width="34" height="154" rx="17"/>
      <path d="M183 282C183 254.386 205.386 232 233 232H291C318.614 232 341 254.386 341 282V290C341 299.941 332.941 308 323 308H201C191.059 308 183 299.941 183 290V282Z" opacity="0.95"/>
      <path d="M286.987 265.605L329.42 221.77C335.061 215.943 344.356 215.792 350.183 221.433C356.01 227.074 356.16 236.369 350.52 242.196L308.086 286.03L286.987 265.605Z" opacity="0.92"/>
      <rect x="293" y="265" width="76" height="28" rx="14" transform="rotate(-45 293 265)" opacity="0.88"/>
    </g>
  </g>
</svg>
